HIERARCHY
ROOT SpineBase
{
  OFFSET 0.000000 0.000000 0.000000
  CHANNELS 6 Xposition Yposition Zposition Zrotation Xrotation Yrotation
  JOINT SpineMid
  {
    OFFSET 0.000000 31.886124 0.000000
    CHANNELS 3 Zrotation Xrotation Yrotation
    JOINT SpineShoulder
    {
      OFFSET 0.064733 23.734414 -0.874075
      CHANNELS 3 Zrotation Xrotation Yrotation
      JOINT Neck
      {
        OFFSET 0.061046 7.849989 -0.625126
        CHANNELS 3 Zrotation Xrotation Yrotation
        JOINT Head
        {
          OFFSET -4.975742 14.433293 -0.889152
          CHANNELS 3 Zrotation Xrotation Yrotation
          End Site
          {
            OFFSET 0 0 0
          }
        }
      }
      JOINT ShoulderLeft
      {
        OFFSET -17.299854 -5.988307 6.678670
        CHANNELS 3 Zrotation Xrotation Yrotation
        JOINT ElbowLeft
        {
          OFFSET -1.700226 -28.560869 4.424564
          CHANNELS 3 Zrotation Xrotation Yrotation
          JOINT WristLeft
          {
            OFFSET 0.686461 -21.843008 -5.279741
            CHANNELS 3 Zrotation Xrotation Yrotation
            JOINT HandLeft
            {
              OFFSET 0.660649 -4.572065 -2.262163
              CHANNELS 3 Zrotation Xrotation Yrotation
              JOINT HandTipLeft
              {
                OFFSET -0.952893 -6.163145 -0.722905
                CHANNELS 3 Zrotation Xrotation Yrotation
                End Site
                {
                  OFFSET 0 0 0
                }
              }
              JOINT ThumbLeft
              {
                OFFSET 3.648010 1.526553 -3.307563
                CHANNELS 3 Zrotation Xrotation Yrotation
                End Site
                {
                  OFFSET 0 0 0
                }
              }
            }
          }
        }
      }
      JOINT ShoulderRight
      {
        OFFSET 14.615494 -3.433182 -8.261780
        CHANNELS 3 Zrotation Xrotation Yrotation
        JOINT ElbowRight
        {
          OFFSET 7.765640 -26.732794 -2.158963
          CHANNELS 3 Zrotation Xrotation Yrotation
          JOINT WristRight
          {
            OFFSET 0.728181 -22.642416 -6.126698
            CHANNELS 3 Zrotation Xrotation Yrotation
            JOINT HandRight
            {
              OFFSET -1.028739 -6.991893 -0.217372
              CHANNELS 3 Zrotation Xrotation Yrotation
              JOINT HandTipRight
              {
                OFFSET 0.070100 -6.340186 -1.133026
                CHANNELS 3 Zrotation Xrotation Yrotation
                End Site
                {
                  OFFSET 0 0 0
                }
              }
              JOINT ThumbRight
              {
                OFFSET 3.411040 -2.005288 -1.559550
                CHANNELS 3 Zrotation Xrotation Yrotation
                End Site
                {
                  OFFSET 0 0 0
                }
              }
            }
          }
        }
      }
    }
  }
  JOINT HipLeft
  {
    OFFSET -6.688371 0.106260 -0.873096
    CHANNELS 3 Zrotation Xrotation Yrotation
    JOINT KneeLeft
    {
      OFFSET 3.020673 -34.253112 4.752420
      CHANNELS 3 Zrotation Xrotation Yrotation
      JOINT AnkleLeft
      {
        OFFSET 8.527603 -37.286080 6.848536
        CHANNELS 3 Zrotation Xrotation Yrotation
        JOINT FootLeft
        {
          OFFSET -0.051889 -7.605207 -8.435536
          CHANNELS 3 Zrotation Xrotation Yrotation
          End Site
          {
            OFFSET 0 0 0
          }
        }
      }
    }
  }
  JOINT HipRight
  {
    OFFSET 7.350445 1.677500 -6.289550
    CHANNELS 3 Zrotation Xrotation Yrotation
    JOINT KneeRight
    {
      OFFSET 6.543599 -32.067074 1.523932
      CHANNELS 3 Zrotation Xrotation Yrotation
      JOINT AnkleRight
      {
        OFFSET 0.603804 -41.403189 10.162182
        CHANNELS 3 Zrotation Xrotation Yrotation
        JOINT FootRight
        {
          OFFSET 1.011823 -9.857108 -4.047734
          CHANNELS 3 Zrotation Xrotation Yrotation
          End Site
          {
            OFFSET 0 0 0
          }
        }
      }
    }
  }
}
MOTION
Frames: 6
Frame Time: 0.033333
-30.778758 81.649870 340.948035 -0.000000 0.000000 21.097604 -0.000000 0.000000 -21.097604 -0.000000 0.000000 0.000000 -0.000000 0.000000 0.000000 0.000000 0.000000 0.000000 -0.000000 0.000000 0.000000 -0.000000 0.000000 0.000000 -0.000000 0.000000 0.000000 -0.000000 0.000000 0.000000 0.000000 0.000000 0.000000 0.000000 0.000000 0.000000 -0.000000 0.000000 0.000000 -0.000000 0.000000 0.000000 -0.000000 0.000000 0.000000 -0.000000 0.000000 0.000000 0.000000 0.000000 0.000000 0.000000 0.000000 0.000000 -0.000000 0.000000 -21.097604 -0.000000 0.000000 0.000000 -0.000000 0.000000 0.000000 0.000000 0.000000 0.000000 -0.000000 0.000000 -21.097604 -0.000000 0.000000 0.000000 -0.000000 0.000000 0.000000 0.000000 0.000000 0.000000
-30.703186 81.655184 340.914138 -0.054456 0.042504 21.018217 0.035588 -0.059207 -21.018179 -0.000000 0.000000 0.000000 -0.000000 0.000000 0.000000 0.000000 0.000000 0.000000 -0.000000 0.000000 0.000000 -0.000000 0.000000 0.000000 -0.346470 -1.179950 -0.002661 13.118016 7.668329 -3.538340 0.000000 0.000000 0.000000 0.000000 0.000000 0.000000 -0.000000 0.000000 0.000000 -0.000000 0.000000 0.000000 -1.533649 1.093557 -0.098361 0.132368 0.625385 0.390412 0.000000 0.000000 0.000000 0.000000 0.000000 0.000000 0.035588 -0.059207 -21.018179 -0.000000 0.000000 0.000000 0.653259 -0.129236 -0.723894 0.000000 0.000000 0.000000 0.035588 -0.059207 -21.018179 -0.000000 0.000000 0.000000 -5.318835 8.559512 3.375646 0.000000 0.000000 0.000000
-30.638290 81.662496 340.895335 -0.115063 0.091141 20.953923 0.074861 -0.126262 -20.953749 -0.000000 0.000000 0.000000 -0.000000 0.000000 0.000000 0.000000 0.000000 0.000000 0.229292 0.949593 -0.022941 -0.228943 -0.949677 0.019144 -0.818077 -2.407666 0.040090 22.111719 12.405923 -7.050830 0.000000 0.000000 0.000000 0.000000 0.000000 0.000000 -0.000000 0.000000 0.000000 -0.753279 0.512304 0.223449 -2.135541 1.592683 -0.407269 0.237949 1.142846 0.756035 0.000000 0.000000 0.000000 0.000000 0.000000 0.000000 0.074861 -0.126262 -20.953749 -0.000000 0.000000 0.000000 1.175612 -0.494602 -1.301829 0.000000 0.000000 0.000000 0.074861 -0.126262 -20.953749 1.207606 0.458724 0.298513 -11.669650 15.630516 6.744168 0.000000 0.000000 0.000000
-30.584071 81.671806 340.891625 -0.181829 0.145912 20.904624 0.117798 -0.201186 -20.904186 -0.000000 0.000000 0.000000 -0.478514 0.789571 0.246479 0.000000 0.000000 0.000000 0.271686 1.370934 -0.042863 -0.270738 -1.371122 0.036372 -1.417940 -3.722787 0.119534 28.199870 15.414299 -9.977199 0.000000 0.000000 0.000000 0.000000 0.000000 0.000000 -0.244469 -0.937187 -0.254832 -0.805892 1.682305 0.580527 -3.010073 2.262678 -0.558448 0.323594 1.540100 1.084172 0.000000 0.000000 0.000000 0.000000 0.000000 0.000000 0.117798 -0.201186 -20.904186 -0.000000 0.000000 0.000000 1.565662 -1.096141 -1.732666 0.000000 0.000000 0.000000 0.117798 -0.201186 -20.904186 1.676305 0.620230 0.411898 -16.837697 21.562857 10.287335 0.000000 0.000000 0.000000
-30.540528 81.683112 340.903009 -0.254764 0.206824 20.870250 0.164369 -0.284013 -20.869383 -0.000000 0.000000 0.000000 -0.557490 0.970528 0.305637 0.000000 0.000000 0.000000 0.264929 1.754361 -0.067629 -0.262982 -1.754654 0.059546 -2.157729 -5.166194 0.229102 32.302769 17.470985 -12.300530 0.000000 0.000000 0.000000 0.000000 0.000000 0.000000 -0.368006 -1.138955 -0.305334 -0.918363 2.107468 0.709833 -3.733362 2.828391 -0.681251 0.395476 1.808529 1.363594 0.000000 0.000000 0.000000 0.000000 0.000000 0.000000 0.164369 -0.284013 -20.869383 -0.000000 0.000000 0.000000 1.822743 -1.936844 -2.015696 0.000000 0.000000 0.000000 0.164369 -0.284013 -20.869383 2.046042 0.731654 0.500499 -21.167156 26.142389 13.483707 0.000000 0.000000 0.000000
-30.507661 81.696416 340.929486 -0.333881 0.273887 20.850761 0.214535 -0.374787 -20.849261 -0.510816 0.631232 -0.042791 -0.085336 0.479056 0.394561 0.000000 0.000000 0.000000 0.718084 1.467801 -0.045993 -0.205206 -2.098782 0.089143 -3.057846 -6.784073 0.362639 34.955156 18.996114 -14.095849 0.000000 0.000000 0.000000 0.000000 0.000000 0.000000 -0.000105 -1.916689 -0.295746 -0.952577 2.467139 0.804280 -4.292797 3.277794 -0.780246 0.458532 1.942871 1.585153 0.000000 0.000000 0.000000 0.000000 0.000000 0.000000 0.214535 -0.374787 -20.849261 -0.000000 0.000000 0.000000 1.946785 -3.022577 -2.150481 0.000000 0.000000 0.000000 0.214535 -0.374787 -20.849261 2.311413 0.790177 0.563767 -24.497266 29.575995 16.112070 0.000000 0.000000 0.000000
